<?xml version="1.0" encoding="UTF-8" standalone="no"?> <svg xmlns="http://www.w3.org/2000/svg" xmlns:xlink="http://www.w3.org/1999/xlink" viewBox="0 0 64 64"><defs><style>.cls-1{fill:url(#linear-gradient);}.cls-2{fill:url(#linear-gradient-2);}</style><linearGradient id="linear-gradient" x1="3" y1="47.25" x2="61" y2="47.25" gradientUnits="userSpaceOnUse"><stop offset="0" stop-color="#ffda50"/><stop offset="0.39" stop-color="#ff9b8a"/><stop offset="0.8" stop-color="#ff5ec4"/><stop offset="1" stop-color="#ff46da"/></linearGradient><linearGradient id="linear-gradient-2" x1="24.29" y1="20.94" x2="58.9" y2="20.94" xlink:href="#linear-gradient"/></defs><g id="Layer_38" data-name="Layer 38"><path class="cls-1" d="M60.68,45.48A4.44,4.44,0,0,0,58.22,43a4.36,4.36,0,0,0-3.4,0L42.09,47.51a4.9,4.9,0,0,0,.07-.77,4.28,4.28,0,0,0-4.28-4.28h-3.3a18.07,18.07,0,0,1-8.42-2.09,20,20,0,0,0-9.35-2.32h-5V34.5a1,1,0,0,0-1-1H4a1,1,0,0,0-1,1V59a1,1,0,0,0,1,1h6.81a1,1,0,0,0,1-1V56.75a19,19,0,0,1,5.27,1l5.14,1.82a24.71,24.71,0,0,0,8.2,1.4l1,0a24.77,24.77,0,0,0,8.69-2l18.43-7.87A4.48,4.48,0,0,0,60.68,45.48ZM9.81,58H5V35.5H9.81Zm47.92-8.68L39.36,57.17a22.41,22.41,0,0,1-8,1.81,22.76,22.76,0,0,1-8.5-1.27L17.74,55.9a20.78,20.78,0,0,0-5.93-1.15V40.05h5a17.88,17.88,0,0,1,8.41,2.09,20.11,20.11,0,0,0,9.36,2.32h3.3a2.28,2.28,0,0,1,2.28,2.29,2.22,2.22,0,0,1-.79,1.71l-1.68.59H26.78a1,1,0,0,0,0,2h11.1l17.68-6.16a2.39,2.39,0,0,1,1.91,0,2.44,2.44,0,0,1,1.35,1.36A2.47,2.47,0,0,1,57.73,49.33Z"/><path class="cls-2" d="M27.62,38.88H53.4a3.33,3.33,0,0,0,3.33-3.32V30.45a2.64,2.64,0,0,0,2.17-2.59V25.14a2.63,2.63,0,0,0-2.17-2.59V18.47a3.34,3.34,0,0,0-3.33-3.33h-.7L54,13.8a1,1,0,0,0,0-1.41L46.21,4.56a1,1,0,0,0-1.41,0L43.54,5.82,38.1,3.11a1,1,0,0,0-.76-.06,1,1,0,0,0-.58.5L31,15.14H27.62a3.34,3.34,0,0,0-3.33,3.33V35.56A3.33,3.33,0,0,0,27.62,38.88Zm29.28-11a.64.64,0,0,1-.64.64H50.61a.21.21,0,0,1-.21-.21V24.71a.21.21,0,0,1,.21-.21h5.65a.64.64,0,0,1,.64.64ZM45.51,6.68l6.41,6.41-2.05,2.05H37ZM38.1,5.34l3.95,2-7.84,7.83h-1ZM26.29,18.47a1.33,1.33,0,0,1,1.33-1.33H53.4a1.34,1.34,0,0,1,1.33,1.33v4H50.61a2.21,2.21,0,0,0-2.21,2.21v3.58a2.21,2.21,0,0,0,2.21,2.21h4.12v5.06a1.33,1.33,0,0,1-1.33,1.32H27.62a1.32,1.32,0,0,1-1.33-1.32Z"/></g></svg>