<?xml version="1.0" encoding="UTF-8" standalone="no"?> <svg xmlns="http://www.w3.org/2000/svg" xmlns:xlink="http://www.w3.org/1999/xlink" viewBox="0 0 64 64"><defs><style>.cls-1{fill:url(#linear-gradient);}</style><linearGradient id="linear-gradient" x1="2.03" y1="32" x2="61.97" y2="32" gradientUnits="userSpaceOnUse"><stop offset="0" stop-color="#17a6d7"/><stop offset="1" stop-color="#9d31fe"/></linearGradient></defs><g id="Layer_84" data-name="Layer 84"><path class="cls-1" d="M60,56H56.41V26a2,2,0,0,0-.67-1.49l-22.41-20a2,2,0,0,0-2.66,0l-22.41,20A2,2,0,0,0,7.59,26V56H4a2,2,0,0,0,0,4H60A2,2,0,0,0,60,56ZM24.75,56V36.87h14.5V56Zm18.5,0V34.87a2,2,0,0,0-2-2H22.75a2,2,0,0,0-2,2V56H11.59V26.9L32,8.68,52.41,26.9V56Z"/></g></svg>