<?xml version="1.0" encoding="UTF-8" standalone="no"?> <svg xmlns="http://www.w3.org/2000/svg" xmlns:xlink="http://www.w3.org/1999/xlink" viewBox="0 0 64 64"><defs><style>.cls-1{fill:url(#linear-gradient);}.cls-2{fill:url(#linear-gradient-2);}</style><linearGradient id="linear-gradient" x1="2" y1="32" x2="62" y2="32" gradientUnits="userSpaceOnUse"><stop offset="0" stop-color="#f62c84"/><stop offset="0.23" stop-color="#e1309c"/><stop offset="0.72" stop-color="#ab38d9"/><stop offset="1" stop-color="#8a3eff"/></linearGradient><linearGradient id="linear-gradient-2" x1="28.65" y1="37.1" x2="35.35" y2="37.1" xlink:href="#linear-gradient"/></defs><g id="Layer_17" data-name="Layer 17"><path class="cls-1" d="M61.37,32.29,33.37,6a2,2,0,0,0-2.74,0l-28,26.25a2,2,0,0,0,2.74,2.92L10,30.87V56.5a2,2,0,0,0,2,2H52a2,2,0,0,0,2-2V30.87l4.63,4.34a2,2,0,0,0,1.37.54,2,2,0,0,0,1.46-.63A2,2,0,0,0,61.37,32.29ZM50,54.5H36.29c3.33-4.18,8.34-11.25,8.34-16C44.63,31.2,39,25.28,32,25.28S19.37,31.2,19.37,38.47c0,4.78,5,11.85,8.34,16H14V27.12L32,10.24,50,27.12ZM32,53.44c-3.82-4.59-8.63-11.5-8.63-15A8.93,8.93,0,0,1,32,29.28a8.93,8.93,0,0,1,8.63,9.19C40.63,41.94,35.82,48.85,32,53.44Z"/><path class="cls-2" d="M32,33.75a3.35,3.35,0,1,0,3.35,3.35A3.35,3.35,0,0,0,32,33.75Z"/></g></svg>