<?xml version="1.0" encoding="utf-8"?>
<!-- SVG Version: 6.00 -->
<svg version="1.2" baseProfile="tiny" id="Layer_1" xmlns="http://www.w3.org/2000/svg" xmlns:xlink="http://www.w3.org/1999/xlink"
	 x="0px" y="0px" viewBox="0 0 500 500" overflow="visible" xml:space="preserve">
<g>
	<linearGradient id="SVGID_1_" gradientUnits="userSpaceOnUse" x1="108.4022" y1="275.7625" x2="392.4284" y2="275.7625">
		<stop  offset="0" style="stop-color:#2871FB"/>
		<stop  offset="1" style="stop-color:#11CCF8"/>
	</linearGradient>
	<path fill="url(#SVGID_1_)" d="M389.4,76.8h-88.8h-6.1h-88.2h-6.1h-88.8c-1.7,0-3,1.4-3,3v24.1c0,1.7,1.4,3,3,3h7.1v361.7v3v3
		h263.8v-3v-3V106.9h7.1c1.7,0,3-1.4,3-3V79.8C392.4,78.1,391.1,76.8,389.4,76.8z M180.8,405.4h-42.1v-42.1h42.1V405.4z
		 M180.8,345.1h-42.1V303h42.1V345.1z M182.2,284.8h-42.1v-42.1h42.1V284.8z M182.2,224.5h-42.1v-42.1h42.1V224.5z M182.2,164.2
		h-42.1v-42.1h42.1V164.2z M248.6,468.7h-49.5V363.3h49.5V468.7z M242.5,182.4v42.1h-42.1v-42.1H242.5z M200.5,164.2v-42.1h42.1
		v42.1H200.5z M242.5,242.7v42.1h-42.1v-42.1H242.5z M241.1,303v42.1h-42.1V303H241.1z M301.8,468.7h-48.1V363.3h48.1V468.7z
		 M301.8,345.1h-42.1V303h42.1V345.1z M303.2,284.8h-42.1v-42.1h42.1V284.8z M303.2,224.5h-42.1v-42.1h42.1V224.5z M303.2,164.2
		h-42.1v-42.1h42.1V164.2z M362.1,405.4H320v-42.1h42.1V405.4z M362.1,345.1H320V303h42.1V345.1z M363.5,284.8h-42.1v-42.1h42.1
		V284.8z M363.5,224.5h-42.1v-42.1h42.1V224.5z M363.5,164.2h-42.1v-42.1h42.1V164.2z M386.4,100.9H114.5v-18h85.8h100.3h85.8V100.9
		z"/>
	<g>
		<linearGradient id="SVGID_2_" gradientUnits="userSpaceOnUse" x1="227.974" y1="46.2218" x2="239.287" y2="46.2218">
			<stop  offset="0" style="stop-color:#2871FB"/>
			<stop  offset="1" style="stop-color:#11CCF8"/>
		</linearGradient>
		<path fill="url(#SVGID_2_)" d="M233.7,37.2c-3.8,0-5.7,3-5.7,9c0,6,1.9,9,5.7,9c3.8,0,5.6-3,5.6-9c0-3-0.5-5.3-1.4-6.8
			C237,38,235.6,37.2,233.7,37.2z"/>
		<linearGradient id="SVGID_3_" gradientUnits="userSpaceOnUse" x1="181.5488" y1="50.7625" x2="319.2941" y2="50.7625">
			<stop  offset="0" style="stop-color:#2871FB"/>
			<stop  offset="1" style="stop-color:#11CCF8"/>
		</linearGradient>
		<path fill="url(#SVGID_3_)" d="M181.5,24.8V70h18.7v6.7h6.1V70h88.2v6.7h6.1V70h18.7V24.8H181.5z M217.9,59.2
			c-0.9,0.1-1.8,0.2-2.7,0.2c-0.9,0-1.8-0.1-2.7-0.2V47.9h-8.8v11.3c-0.9,0.1-1.8,0.2-2.7,0.2c-0.9,0-1.8-0.1-2.7-0.2V33.1
			c0.9-0.1,1.8-0.2,2.6-0.2c0.9,0,1.8,0.1,2.7,0.2v10.3h8.8V33.1c0.9-0.1,1.8-0.2,2.6-0.2c0.9,0,1.8,0.1,2.7,0.2V59.2z M244.3,51.6
			c-0.5,1.6-1.1,3.1-2.1,4.2c-0.9,1.2-2.1,2.1-3.5,2.8c-1.4,0.7-3.1,1-5.1,1c-2,0-3.7-0.3-5.1-1c-1.4-0.7-2.6-1.6-3.5-2.8
			c-0.9-1.2-1.6-2.6-2.1-4.2c-0.5-1.6-0.7-3.4-0.7-5.4c0-1.9,0.2-3.7,0.7-5.4c0.5-1.7,1.1-3.1,2.1-4.3c0.9-1.2,2.1-2.2,3.5-2.8
			c1.4-0.7,3.1-1,5.1-1c2,0,3.7,0.3,5.1,1c1.4,0.7,2.6,1.6,3.5,2.8c0.9,1.2,1.6,2.6,2.1,4.3c0.4,1.7,0.7,3.5,0.7,5.4
			C245,48.2,244.8,49.9,244.3,51.6z M264.9,37.6h-6.5v21.6c-0.4,0-0.9,0.1-1.3,0.1c-0.4,0-0.9,0.1-1.3,0.1c-0.4,0-0.9,0-1.3,0
			c-0.5,0-0.9-0.1-1.4-0.1V37.6h-6.5c-0.1-0.7-0.2-1.5-0.2-2.3c0-0.8,0.1-1.5,0.2-2.2h18.4c0.1,0.7,0.2,1.5,0.2,2.2
			C265.2,36.1,265.1,36.9,264.9,37.6z M283.7,59.2h-15.1V33.1h14.8c0.1,0.7,0.2,1.5,0.2,2.2c0,0.8-0.1,1.6-0.2,2.3h-9.5v5.7h7.5
			c0.2,0.8,0.2,1.5,0.2,2.3c0,0.8-0.1,1.5-0.2,2.3h-7.5v6.9h9.8c0.1,0.7,0.2,1.5,0.2,2.2C283.9,57.7,283.8,58.5,283.7,59.2z
			 M302.3,58.1c0,0.4-0.1,0.8-0.1,1.2h-14.3V33.1c0.9-0.1,1.8-0.2,2.6-0.2c0.8,0,1.7,0.1,2.6,0.2v21.6h9.1c0.1,0.4,0.1,0.8,0.1,1.2
			c0,0.4,0,0.7,0,1.1C302.4,57.3,302.4,57.7,302.3,58.1z"/>
	</g>
</g>
</svg>
