<?xml version="1.0" encoding="UTF-8" standalone="no"?> <svg xmlns="http://www.w3.org/2000/svg" xmlns:xlink="http://www.w3.org/1999/xlink" viewBox="0 0 64 64"><defs><style>.cls-1{fill:url(#linear-gradient);}.cls-2{fill:url(#linear-gradient-2);}.cls-3{fill:url(#linear-gradient-3);}.cls-4{fill:url(#linear-gradient-4);}.cls-5{fill:url(#linear-gradient-5);}</style><linearGradient id="linear-gradient" x1="3" y1="29.49" x2="61" y2="29.49" gradientUnits="userSpaceOnUse"><stop offset="0" stop-color="#17a6d7"/><stop offset="1" stop-color="#9d31fe"/></linearGradient><linearGradient id="linear-gradient-2" x1="31" y1="25.76" x2="42" y2="25.76" xlink:href="#linear-gradient"/><linearGradient id="linear-gradient-3" x1="10.05" y1="33.12" x2="26.76" y2="33.12" xlink:href="#linear-gradient"/><linearGradient id="linear-gradient-4" y1="51.66" x2="25.71" y2="51.66" xlink:href="#linear-gradient"/><linearGradient id="linear-gradient-5" x1="29.05" y1="51.66" x2="58.2" y2="51.66" xlink:href="#linear-gradient"/></defs><g id="Layer_43" data-name="Layer 43"><path class="cls-1" d="M60.33,32,52.71,19a4,4,0,0,0-3.27-1.7H46.35V15a1,1,0,0,0-1-1H43.87v-.82a3.13,3.13,0,1,0-2,0V14H40.4a1,1,0,0,0-1,1v2.36H7a4,4,0,0,0-4,4V48a4,4,0,0,0,4,4h5.14a1,1,0,0,0,1-1h0a5.3,5.3,0,0,1,10.59,0,1,1,0,0,0,1,1h14.7a1,1,0,0,0,1-1h0a5.3,5.3,0,0,1,10.59,0h0a1,1,0,0,0,1,1h5a4,4,0,0,0,4-4V34.21A3.9,3.9,0,0,0,60.33,32ZM42.87,9.05a1.14,1.14,0,1,1-1.13,1.13A1.14,1.14,0,0,1,42.87,9.05ZM52,21.8l4.66,7.93H45.77V21.8ZM41.4,16h3v1.36h-3ZM59,48a2,2,0,0,1-2,2h-4.1a7.28,7.28,0,0,0-14.43,0H25.63a7.29,7.29,0,0,0-14.44,0H7a2,2,0,0,1-2-2V21.3a2,2,0,0,1,2-2H49.44a2,2,0,0,1,1.3.48h-6a1,1,0,0,0-1,1v9.93a1,1,0,0,0,1,1H57.85l.79,1.34A2,2,0,0,1,59,34.21Z"/><path class="cls-2" d="M41,19.8H32a1,1,0,0,0-1,1v9.93a1,1,0,0,0,1,1h9a1,1,0,0,0,1-1V20.8A1,1,0,0,0,41,19.8Zm-1,9.93H33V21.8h7Z"/><path class="cls-3" d="M25.76,29.71H21.82V25.76a1,1,0,0,0-1-1H16a1,1,0,0,0-1,1v3.95H11.05a1,1,0,0,0-1,1v4.82a1,1,0,0,0,1,1H15v3.94a1,1,0,0,0,1,1h4.82a1,1,0,0,0,1-1V36.53h3.94a1,1,0,0,0,1-1V30.71A1,1,0,0,0,25.76,29.71Zm-1,4.82H20.82a1,1,0,0,0-1,1v3.94H17V35.53a1,1,0,0,0-1-1H12.05V31.71H16a1,1,0,0,0,1-1V26.76h2.82v3.95a1,1,0,0,0,1,1h3.94Z"/><path class="cls-4" d="M24.71,55H20.57a4.58,4.58,0,1,0-4.31,0H4a1,1,0,0,0,0,2H24.71a1,1,0,0,0,0-2Zm-6.3-6.59a2.58,2.58,0,1,1-2.57,2.58A2.59,2.59,0,0,1,18.41,48.36Z"/><path class="cls-5" d="M57.2,55H47.87a4.59,4.59,0,1,0-4.31,0H30.05a1,1,0,1,0,0,2H57.2a1,1,0,0,0,0-2ZM45.71,48.36a2.58,2.58,0,1,1-2.58,2.58A2.59,2.59,0,0,1,45.71,48.36Z"/></g></svg>