<?xml version="1.0" encoding="UTF-8" standalone="no"?> <svg id="gradient" xmlns="http://www.w3.org/2000/svg" xmlns:xlink="http://www.w3.org/1999/xlink" viewBox="0 0 64 64"><defs><linearGradient id="New_Gradient_Swatch_copy" x1="-10.913" y1="52.42" x2="52.546" y2="-11.04" gradientUnits="userSpaceOnUse"><stop offset="0" stop-color="#ab20ec"/><stop offset="1" stop-color="#0071fc"/></linearGradient><linearGradient id="New_Gradient_Swatch_copy-2" x1="-0.21" y1="63.123" x2="63.25" y2="-0.336" xlink:href="#New_Gradient_Swatch_copy"/><linearGradient id="New_Gradient_Swatch_copy-3" x1="13.17" y1="76.503" x2="76.629" y2="13.044" xlink:href="#New_Gradient_Swatch_copy"/></defs><path d="M9.993,63A4.944,4.944,0,0,1,6.62,61.685,5.017,5.017,0,0,1,5,58V22.986A13.474,13.474,0,0,1,1,13C1,6.383,5.037,1,10,1s9,5.383,9,12a13.474,13.474,0,0,1-4,9.986V57.793a5.144,5.144,0,0,1-4.559,5.188C10.291,62.994,10.142,63,9.993,63ZM10,3C6.141,3,3,7.486,3,13c0,3.622,1.388,6.969,3.62,8.736A1,1,0,0,1,7,22.52V58a3,3,0,0,0,3.27,2.989,3.134,3.134,0,0,0,2.73-3.2V22.52a1,1,0,0,1,.38-.784C15.612,19.969,17,16.622,17,13,17,7.486,13.859,3,10,3Z" style="fill:url(#New_Gradient_Swatch_copy)"/><path d="M34,63a5.006,5.006,0,0,1-5-5V25a5.006,5.006,0,0,1-5-5V4a3,3,0,0,1,6,0v7h1V4a3,3,0,0,1,6,0v7h1V4a3,3,0,0,1,6,0V20a5.006,5.006,0,0,1-5,5V58A5.006,5.006,0,0,1,34,63ZM27,3a1,1,0,0,0-1,1V20a3,3,0,0,0,3,3h1a1,1,0,0,1,1,1V58a3,3,0,0,0,6,0V24a1,1,0,0,1,1-1h1a3,3,0,0,0,3-3V4a1,1,0,0,0-2,0v8a1,1,0,0,1-1,1H36a1,1,0,0,1-1-1V4a1,1,0,0,0-2,0v8a1,1,0,0,1-1,1H29a1,1,0,0,1-1-1V4A1,1,0,0,0,27,3Z" style="fill:url(#New_Gradient_Swatch_copy-2)"/><path d="M58,63a5.006,5.006,0,0,1-5-5V37.9A5.008,5.008,0,0,1,49,33V11a9.01,9.01,0,0,1,9-9h3a2,2,0,0,1,2,2V58A5.006,5.006,0,0,1,58,63ZM58,4a7.008,7.008,0,0,0-7,7V33a3,3,0,0,0,3,3,1,1,0,0,1,1,1V58a3,3,0,0,0,6,0V4Z" style="fill:url(#New_Gradient_Swatch_copy-3)"/></svg>