<?xml version="1.0" encoding="UTF-8" standalone="no"?> <svg xmlns="http://www.w3.org/2000/svg" xmlns:xlink="http://www.w3.org/1999/xlink" viewBox="0 0 64 64"><defs><style>.cls-1{fill:url(#linear-gradient);}.cls-2{fill:url(#linear-gradient-2);}.cls-3{fill:url(#linear-gradient-3);}</style><linearGradient id="linear-gradient" x1="2" y1="32" x2="62" y2="32" gradientUnits="userSpaceOnUse"><stop offset="0" stop-color="#17a6d7"/><stop offset="1" stop-color="#9d31fe"/></linearGradient><linearGradient id="linear-gradient-2" x1="10.17" y1="39.52" x2="20.8" y2="39.52" xlink:href="#linear-gradient"/><linearGradient id="linear-gradient-3" x1="43.2" y1="39.52" x2="53.83" y2="39.52" xlink:href="#linear-gradient"/></defs><g id="Layer_25" data-name="Layer 25"><path class="cls-1" d="M54.9,28.55,53.65,14.73a10.16,10.16,0,0,0-10-9.34H20.39a10.16,10.16,0,0,0-10,9.32L9.1,28.55A8.53,8.53,0,0,0,2,36.94v8.18a5.49,5.49,0,0,0,5.49,5.49H10v2.52a5.49,5.49,0,0,0,11,0V50.61H43v2.52a5.49,5.49,0,0,0,11,0V50.61h2.51A5.49,5.49,0,0,0,62,45.12V36.94A8.53,8.53,0,0,0,54.9,28.55ZM14.34,15.05a6.13,6.13,0,0,1,6.05-5.66H43.61a6.13,6.13,0,0,1,6,5.68l1.21,13.35H13.13ZM17,53.13a1.49,1.49,0,0,1-3,0V50.61h3Zm33,0a1.49,1.49,0,0,1-3,0V50.61h3Zm8-8a1.49,1.49,0,0,1-1.49,1.49h-49A1.49,1.49,0,0,1,6,45.12V36.94a4.56,4.56,0,0,1,4.94-4.52H53.49A4.52,4.52,0,0,1,58,36.94Z"/><path class="cls-2" d="M15.49,34.16c-7.09.23-7.08,10.49,0,10.72C22.57,44.65,22.57,34.38,15.49,34.16Zm0,6.72a1.36,1.36,0,0,1,0-2.72A1.36,1.36,0,0,1,15.49,40.88Z"/><path class="cls-3" d="M48.51,34.16c-7.08.23-7.08,10.5,0,10.72C55.6,44.65,55.59,34.38,48.51,34.16Zm0,6.72a1.36,1.36,0,0,1,0-2.72A1.36,1.36,0,0,1,48.51,40.88Z"/></g></svg>