<?xml version="1.0" encoding="UTF-8"?>
<!DOCTYPE svg PUBLIC "-//W3C//DTD SVG 1.1//EN" "http://www.w3.org/Graphics/SVG/1.1/DTD/svg11.dtd">
<!-- Creator: CorelDRAW -->
<svg xmlns="http://www.w3.org/2000/svg" xml:space="preserve" width="512px" height="512px" version="1.1" style="shape-rendering:geometricPrecision; text-rendering:geometricPrecision; image-rendering:optimizeQuality; fill-rule:evenodd; clip-rule:evenodd"
viewBox="0 0 512 512"
 xmlns:xlink="http://www.w3.org/1999/xlink"
 xmlns:xodm="http://www.corel.com/coreldraw/odm/2003">
 <defs>
  <style type="text/css">
   <![CDATA[
    .fil0 {fill:url(#id0)}
   ]]>
  </style>
  <linearGradient id="id0" gradientUnits="userSpaceOnUse" x1="256" y1="123" x2="256" y2="389">
   <stop offset="0" style="stop-opacity:1; stop-color:#5CC6D0"/>
   <stop offset="0.490196" style="stop-opacity:1; stop-color:#A53692"/>
   <stop offset="1" style="stop-opacity:1; stop-color:#F06277"/>
  </linearGradient>
 </defs>
 <g id="Layer_x0020_1">
  <metadata id="CorelCorpID_0Corel-Layer"/>
  <path class="fil0" d="M329 254l-47 0c-3.9,0 -7,-3.1 -7,-7 0,-3.9 3.1,-7 7,-7l47 0c3.9,0 7,3.1 7,7 0,3.9 -3.1,7 -7,7zm176 88l-28.61 0c-1.98,12.93 -8.67,24.55 -18.19,33l43.8 0c3.9,0 7,3.1 7,7 0,3.9 -3.1,7 -7,7l-80 0 -295 0 -81 0c-3.9,0 -7,-3.1 -7,-7 0,-3.9 3.1,-7 7,-7l44.4 0c-9.4,-8.4 -15.91,-19.97 -17.82,-33l-37.58 0c-3.9,0 -7,-3.1 -7,-7l0 -6 -7 0c-11.8,0 -21,-9.2 -21,-21l0 -58c0,-11.8 9.2,-21 21,-21l7 0 0 -6c0,-3.9 3.1,-7 7,-7l50.62 0 24.58 -87.9c0.8,-3 3.6,-5.1 6.7,-5.1l114.01 0 0.09 0 0.09 0 87.81 0c2.5,0 4.9,1.4 6.1,3.6l49.99 89.4 73.01 0c11.43,0 22.16,2.97 31.45,8.16l0.01 0 0.05 0.01 0.1 0.02 0.02 0.01 0.08 0.02 0.08 0.02 0.02 0 0.1 0.03 0.05 0.02 0.05 0.01 0.09 0.03 0.02 0.01 0.08 0.03 0.09 0.03 0.01 0 0.09 0.03 0.06 0.03 0.04 0.01 0.09 0.04 0.03 0.01 0.07 0.03 0.09 0.04 0.01 0 0.09 0.05 0.06 0.02 0.03 0.02 0.1 0.05 0.02 0.01 0.07 0.04 0.09 0.04 0 0.01 0.09 0.05 0.06 0.03 0.04 0.02 0.12 0.07 0.06 0.04 0.09 0.06c8.22,5.14 15.07,12.01 20.16,19.92 6.05,9.25 9.7,20.16 10.1,31.85l0 0.12 0.02 0.79 0.01 0.74 0.01 0.48 0 56c0,3.9 -3.1,7 -7,7zm-28.33 -14l21.33 0 0 -44.91 0 -0.09 0 -2.37c-1.72,0.25 -3.38,0.37 -5,0.37 -20.7,0 -37,-16.3 -37,-37 0,-4.42 0.89,-8.81 2.55,-12.9 -3.4,-0.72 -6.93,-1.1 -10.55,-1.1l-76.95 0c-0.12,0 -0.23,0 -0.35,0l-139.66 0 -0.04 0 -0.04 0 -139.94 0 -0.02 0 -0.06 0 -48.94 0 0 6 0 86 0 6 30.31 0c2.91,-27.89 25.92,-49 54.69,-49 28.77,0 51.78,21.11 54.69,49l185.44 0c1.4,-12.98 7.41,-25.12 17.07,-34.1 10.2,-9.6 23.6,-14.9 37.8,-14.9 28.27,0 51.67,21.5 54.67,49zm13.98 -74.54c-4.62,-7.4 -11.19,-13.5 -19.01,-17.63 -1.14,2.53 -1.74,5.24 -1.74,8.07 0,13.1 9.9,23 23,23 1.05,0 2.21,-0.11 3.44,-0.31l-0.16 -0.56 -0.04 -0.15 -0.04 -0.14 -0.16 -0.55 -0.04 -0.11 -0.15 -0.49 -0.06 -0.21 -0.01 -0.03 -0.19 -0.55 -0.12 -0.38 -0.13 -0.36 -0.05 -0.15 -0.08 -0.22 -0.19 -0.52 -0.01 -0.02 -0.21 -0.55 -0.06 -0.15 -0.05 -0.13 -0.21 -0.51 -0.06 -0.15 -0.2 -0.48 -0.07 -0.18 -0.01 -0.02 -0.24 -0.54 -0.01 -0.01 -0.14 -0.34 -0.18 -0.38 -0.06 -0.13 -0.1 -0.2 -0.24 -0.51 -0.01 -0.02 -0.26 -0.53 -0.01 -0.02 -0.15 -0.29 -0.2 -0.4 -0.07 -0.14 -0.1 -0.19 -0.27 -0.49 -0.01 -0.03 -0.01 -0.01 -0.36 -0.65 0 0 -0.36 -0.63 -0.05 -0.08 -0.38 -0.64 -0.01 -0.02 -0.17 -0.27zm-462.65 61.54l0 -72 -7 0c-4.1,0 -7,2.9 -7,7l0 58c0,4.1 2.9,7 7,7l7 0zm72.19 -99l123.81 0 0 -79 -101.7 0 -22.11 79zm137.81 0l120.98 0 -44.18 -79 -76.8 0 0 79zm129.58 126l-186.16 0c-1.92,13.03 -8.42,24.6 -17.82,33l221.8 0c-9.4,-8.4 -15.91,-19.97 -17.82,-33zm-240.58 -49c-23,0 -41,18 -41,41 0,22.58 18.36,40.96 40.93,41l0.14 0c22.57,-0.04 40.93,-18.43 40.93,-41 0,-23 -18,-41 -41,-41zm254 37.3l0 3.7c0,22.59 18.39,40.99 40.98,41l0.03 0c22.2,-0.01 40.99,-18.8 40.99,-41 0,-22.6 -18.4,-41 -41,-41 -21.5,0 -39.1,16 -41,37.3zm-254 28.7c-13.8,0 -25,-11.2 -25,-25 0,-13.8 11.2,-25 25,-25 13.8,0 25,11.2 25,25 0,13.8 -11.2,25 -25,25zm0 -36c-6.2,0 -11,4.8 -11,11 0,6.2 4.8,11 11,11 6.2,0 11,-4.8 11,-11 0,-6.2 -4.8,-11 -11,-11zm295 36c-13.8,0 -25,-11.2 -25,-25 0,-13.8 11.2,-25 25,-25 13.7,0 24,10.7 24,25 0,14.3 -10.3,25 -24,25zm0 -36c-6.2,0 -11,4.8 -11,11 0,6.2 4.8,11 11,11 5.9,0 10,-4.5 10,-11 0,-6.5 -4.1,-11 -10,-11zm-240 -69l-47 0c-3.9,0 -7,-3.1 -7,-7 0,-3.9 3.1,-7 7,-7l47 0c3.9,0 7,3.1 7,7 0,3.9 -3.1,7 -7,7z"/>
 </g>
</svg>
