<?xml version="1.0" encoding="UTF-8" standalone="no"?> <svg xmlns="http://www.w3.org/2000/svg" xmlns:xlink="http://www.w3.org/1999/xlink" viewBox="0 0 64 64"><defs><style>.cls-1{fill:url(#linear-gradient);}.cls-2{fill:url(#linear-gradient-2);}.cls-3{fill:url(#linear-gradient-3);}.cls-4{fill:url(#linear-gradient-4);}.cls-5{fill:url(#linear-gradient-5);}.cls-6{fill:url(#linear-gradient-6);}.cls-7{fill:url(#linear-gradient-7);}.cls-8{fill:url(#linear-gradient-8);}.cls-9{fill:url(#linear-gradient-9);}.cls-10{fill:url(#linear-gradient-10);}</style><linearGradient id="linear-gradient" x1="3" y1="32" x2="61" y2="32" gradientUnits="userSpaceOnUse"><stop offset="0" stop-color="#17a6d7"/><stop offset="1" stop-color="#9d31fe"/></linearGradient><linearGradient id="linear-gradient-2" x1="24.78" y1="36.42" x2="39.25" y2="36.42" xlink:href="#linear-gradient"/><linearGradient id="linear-gradient-3" x1="32.84" y1="25.85" x2="37.77" y2="25.85" xlink:href="#linear-gradient"/><linearGradient id="linear-gradient-4" x1="37.08" y1="29.98" x2="42.61" y2="29.98" xlink:href="#linear-gradient"/><linearGradient id="linear-gradient-5" x1="26.25" y1="25.85" x2="31.18" y2="25.85" xlink:href="#linear-gradient"/><linearGradient id="linear-gradient-6" x1="21.39" y1="29.98" x2="26.92" y2="29.98" xlink:href="#linear-gradient"/><linearGradient id="linear-gradient-7" x1="46.97" y1="51.5" x2="56.03" y2="51.5" xlink:href="#linear-gradient"/><linearGradient id="linear-gradient-8" x1="40.62" y1="47.45" x2="54.28" y2="47.45" xlink:href="#linear-gradient"/><linearGradient id="linear-gradient-9" x1="7.97" y1="12.5" x2="17.03" y2="12.5" xlink:href="#linear-gradient"/><linearGradient id="linear-gradient-10" x1="9.72" y1="16.55" x2="23.38" y2="16.55" xlink:href="#linear-gradient"/></defs><g id="Layer_26" data-name="Layer 26"><path class="cls-1" d="M51.91,32l5-5A14.08,14.08,0,0,0,37,7.12l-5,5-5-5A14.08,14.08,0,0,0,7.12,27l5,5-5,5A14.08,14.08,0,0,0,27,56.88l5-5,5,5A14.08,14.08,0,0,0,56.88,37ZM38.39,8.54A12.07,12.07,0,1,1,55.46,25.61l-5,5L33.42,13.51ZM25.61,55.46A12.07,12.07,0,1,1,8.54,38.39l5-5L30.58,50.49Zm29.85,0a12.07,12.07,0,0,1-17.08,0l-5.67-5.67h0L14.22,31.3h0L8.54,25.62A12.08,12.08,0,1,1,25.62,8.54l5.67,5.67h0L49.78,32.7h0l5.67,5.67a12.07,12.07,0,0,1,0,17.08Z"/><path class="cls-2" d="M32,31.15a7.14,7.14,0,0,0-7.23,7c0,.86.45,2,2.61,2.82a14.29,14.29,0,0,0,4.62.68c3.34,0,7.24-.91,7.24-3.5A7.14,7.14,0,0,0,32,31.15Zm0,8.53c-3.19,0-5.23-.89-5.23-1.5a5.24,5.24,0,0,1,10.47,0C37.25,38.79,35.21,39.68,32,39.68Z"/><path class="cls-3" d="M34.2,29.19a1.82,1.82,0,0,0,.79.18,1.88,1.88,0,0,0,.79-.17,3.63,3.63,0,0,0,1.79-2.45h0c.44-1.62.18-3.59-1.16-4.25a1.86,1.86,0,0,0-1.58,0A3.65,3.65,0,0,0,33,25C32.6,26.56,32.86,28.53,34.2,29.19ZM35,25.47a2.15,2.15,0,0,1,.61-1.11,2.7,2.7,0,0,1,.06,1.86A2.1,2.1,0,0,1,35,27.33,2.69,2.69,0,0,1,35,25.47Z"/><path class="cls-4" d="M42.27,27.92a2.11,2.11,0,0,0-1.57-1.08,2.92,2.92,0,0,0-2.4.95A3.77,3.77,0,0,0,37.42,32,2.11,2.11,0,0,0,39,33.12l.3,0a3,3,0,0,0,2.1-1A3.74,3.74,0,0,0,42.27,27.92ZM40,30.76a1,1,0,0,1-.71.38s0,0-.09-.08a1.88,1.88,0,0,1,.55-1.86,1.1,1.1,0,0,1,.68-.38h0s.06,0,.1.07A1.89,1.89,0,0,1,40,30.76Z"/><path class="cls-5" d="M26.45,26.75a3.66,3.66,0,0,0,1.79,2.45,1.88,1.88,0,0,0,.79.17,1.79,1.79,0,0,0,.79-.18c1.35-.66,1.6-2.63,1.16-4.25a3.63,3.63,0,0,0-1.79-2.45,1.86,1.86,0,0,0-1.58,0c-1.34.66-1.6,2.63-1.16,4.25Zm2-2.39a2.12,2.12,0,0,1,.61,1.11A2.61,2.61,0,0,1,29,27.33a2.2,2.2,0,0,1-.61-1.11A2.67,2.67,0,0,1,28.44,24.36Z"/><path class="cls-6" d="M26.58,32a3.77,3.77,0,0,0-.88-4.25,2.92,2.92,0,0,0-2.4-.95,2.11,2.11,0,0,0-1.57,1.08,3.74,3.74,0,0,0,.88,4.25,3,3,0,0,0,2.1,1l.3,0A2.11,2.11,0,0,0,26.58,32Zm-1.75-1c0,.07-.06.07-.09.08s-.39-.05-.71-.38a1.89,1.89,0,0,1-.56-1.86c0-.07.07-.07.1-.07a1,1,0,0,1,.71.37A1.88,1.88,0,0,1,24.83,31.06Z"/><path class="cls-7" d="M54.32,47.27l-7,7A1,1,0,0,0,48,56a1,1,0,0,0,.71-.29l7.06-7.06a1,1,0,0,0,0-1.41A1,1,0,0,0,54.32,47.27Z"/><path class="cls-8" d="M54,40.92a1,1,0,0,0-1.41,0L40.92,52.58a1,1,0,0,0,0,1.41,1,1,0,0,0,.7.29,1,1,0,0,0,.71-.29L54,42.33A1,1,0,0,0,54,40.92Z"/><path class="cls-9" d="M16.73,8.26a1,1,0,0,0-1.41,0L8.26,15.32a1,1,0,1,0,1.42,1.41l7.05-7A1,1,0,0,0,16.73,8.26Z"/><path class="cls-10" d="M23.08,10a1,1,0,0,0-1.41,0L10,21.67a1,1,0,0,0,.71,1.71,1,1,0,0,0,.7-.3L23.08,11.42A1,1,0,0,0,23.08,10Z"/></g></svg>